<?xml version="1.0" encoding="utf-8"?>
<!-- Generator: Adobe Illustrator 22.0.1, SVG Export Plug-In . SVG Version: 6.00 Build 0)  -->
<svg version="1.1" id="Calque_1" xmlns="http://www.w3.org/2000/svg" xmlns:xlink="http://www.w3.org/1999/xlink" x="0px" y="0px"
	 viewBox="0 0 144.1 234.4" style="enable-background:new 0 0 144.1 234.4;" xml:space="preserve">
<style type="text/css">
	.st0{fill:#FFFFFF;}
</style>
<g>
	<path class="st0" d="M84.4,143.6l56.5-66.9c1.6-1.8,1.4-4.5-0.4-6.1c-0.8-0.7-1.8-1.1-2.9-1.1H95.1c-1.3,0-2.5,0.6-3.3,1.6
		l-46.7,57.5c-0.4,0.5-1.2,0.6-1.8,0.2c-0.3-0.2-0.5-0.6-0.5-1V4.3c0-2.4-1.9-4.3-4.3-4.3l0,0L4.3,5C1.7,5.4,0,6.9,0,9.3V230
		c0,2.4,1.9,4.3,4.3,4.3h34.2c2.4,0,4.3-1.9,4.3-4.3v-67c0-0.7,0.6-1.3,1.3-1.3c0.4,0,0.9,0.2,1.1,0.6l49.1,70.3
		c0.8,1.2,2.1,1.8,3.5,1.8h42c2.4,0,4.3-1.9,4.3-4.3c0-1-0.3-1.9-0.9-2.6l-58.8-82.8C84.2,144.4,84.2,143.9,84.4,143.6z"/>
</g>
</svg>
